<?xml version="1.0" encoding="utf-8"?>
<svg id="master-artboard" viewBox="0 0 35 59" version="1.1" xmlns="http://www.w3.org/2000/svg" x="0px" y="0px" style="enable-background:new 0 0 612 792;" width="35px" height="59px"><rect id="ee-background" x="0" y="0" width="35" height="59" style="fill: white; fill-opacity: 0; pointer-events: none;"/>

<path class="st11" d="M323.3,396.4h23.9c2.2,0,4,1.8,4,4v39.8c0,2.2-1.8,4-4,4h-23.9c-2.2,0-4-1.8-4-4v-39.8&#10;&#9;&#9;C319.4,398.2,321.2,396.4,323.3,396.4L323.3,396.4z" style="fill-rule: evenodd; clip-rule: evenodd; fill: rgb(128, 130, 133);" transform="matrix(1, 0, 0, 1, -316.8636169433594, -396.22554524739576)"/><path class="st12" d="M322.7,397.1h23.9c2.2,0,4,1.8,4,4v39.8c0,2.2-1.8,4-4,4h-23.9c-2.2,0-4-1.8-4-4V401&#10;&#9;&#9;C318.7,398.8,320.5,397.1,322.7,397.1L322.7,397.1z" style="fill-rule: evenodd; clip-rule: evenodd;" transform="matrix(1, 0, 0, 1, -316.8636169433594, -396.22554524739576)"/><path class="st3" d="M319.9,442.8c-3.3-4.8-3-12.7-3-12.7c2.3-8.6,3-31,3-31h28.7v43.7H319.9L319.9,442.8z" style="fill-rule: evenodd; clip-rule: evenodd; fill: rgb(116, 199, 220);" transform="matrix(1, 0, 0, 1, -316.8636169433594, -396.22554524739576)"/><path class="st15" d="M348.6,399.1c0,0-0.5,0.7-0.5,1.6c0,0.9-0.4,17.9-1,22.1c-0.7,4.2-3.3,11.3,1.6,20v-42V399.1L348.6,399.1z" style="fill-rule: evenodd; clip-rule: evenodd; fill: rgb(66, 138, 153);" transform="matrix(1, 0, 0, 1, -316.8636169433594, -396.22554524739576)"/><path class="st16" d="M332.2,420.9c3.3,0.1,11.9,0.5,13.6,9.1h-28.9c0.3-1,0.5-2.2,0.7-3.5C317.6,426.6,319.4,420.8,332.2,420.9&#10;&#9;&#9;L332.2,420.9z" style="fill-rule: evenodd; clip-rule: evenodd; fill: rgb(155, 217, 226);" transform="matrix(1, 0, 0, 1, -316.8636169433594, -396.22554524739576)"/><path class="st2" d="M345.8,430c-0.3,3.6,0.1,7.9,2.8,12.7h-28.7c-3.3-4.8-3-12.7-3-12.7H345.8L345.8,430z" style="fill-rule: evenodd; clip-rule: evenodd; fill: rgb(80, 171, 190);" transform="matrix(1, 0, 0, 1, -316.8636169433594, -396.22554524739576)"/><path d="M327.8,450.6c0-0.7,0.1-1.3,0.3-1.7c0.2-0.3,0.4-0.7,0.6-0.9c0.3-0.3,0.6-0.5,0.9-0.6c0.4-0.2,0.9-0.3,1.5-0.3&#10;&#9;&#9;c1,0,1.8,0.3,2.4,0.9c0.6,0.6,0.9,1.5,0.9,2.6c0,1.1-0.3,1.9-0.9,2.6c-0.6,0.6-1.4,0.9-2.4,0.9c-1,0-1.8-0.3-2.4-0.9&#10;&#9;&#9;C328,452.5,327.8,451.7,327.8,450.6L327.8,450.6z M329.2,450.6c0,0.8,0.2,1.3,0.5,1.7c0.4,0.4,0.8,0.6,1.3,0.6c0.5,0,1-0.2,1.3-0.6&#10;&#9;&#9;c0.3-0.4,0.5-1,0.5-1.8c0-0.8-0.2-1.4-0.5-1.7c-0.3-0.4-0.8-0.6-1.4-0.6c-0.6,0-1,0.2-1.4,0.6C329.3,449.2,329.2,449.8,329.2,450.6&#10;&#9;&#9;L329.2,450.6z M335.4,454v-6.8h1.3l2.8,4.5v-4.5h1.3v6.8h-1.4l-2.7-4.4v4.4H335.4L335.4,454z" transform="matrix(1, 0, 0, 1, -316.8636169433594, -396.22554524739576)"/><path class="st7" d="M327.8,450.8c0-0.7,0.1-1.3,0.3-1.7c0.2-0.3,0.4-0.7,0.6-0.9c0.3-0.3,0.6-0.5,0.9-0.6c0.4-0.2,0.9-0.3,1.5-0.3&#10;&#9;&#9;c1,0,1.8,0.3,2.4,0.9c0.6,0.6,0.9,1.5,0.9,2.6c0,1.1-0.3,1.9-0.9,2.6c-0.6,0.6-1.4,0.9-2.4,0.9c-1,0-1.8-0.3-2.4-0.9&#10;&#9;&#9;C328,452.8,327.8,451.9,327.8,450.8L327.8,450.8z M329.2,450.8c0,0.8,0.2,1.3,0.5,1.7c0.4,0.4,0.8,0.6,1.3,0.6c0.5,0,1-0.2,1.3-0.6&#10;&#9;&#9;c0.3-0.4,0.5-1,0.5-1.8c0-0.8-0.2-1.4-0.5-1.7c-0.3-0.4-0.8-0.6-1.4-0.6c-0.6,0-1,0.2-1.4,0.6C329.3,449.4,329.2,450,329.2,450.8&#10;&#9;&#9;L329.2,450.8z M335.4,454.2v-6.8h1.3l2.8,4.5v-4.5h1.3v6.8h-1.4l-2.7-4.4v4.4H335.4L335.4,454.2z" style="fill: rgb(116, 199, 220);" transform="matrix(1, 0, 0, 1, -316.8636169433594, -396.22554524739576)"/>
</svg>