<?xml version="1.0" encoding="utf-8"?>
<svg id="master-artboard" viewBox="0 0 34.833335876464844 47" version="1.1" xmlns="http://www.w3.org/2000/svg" x="0px" y="0px" style="enable-background:new 0 0 612 792;" width="34.833335876464844px" height="47px"><rect id="ee-background" x="0" y="0" width="34.833335876464844" height="47" style="fill: white; fill-opacity: 0; pointer-events: none;"/>

<path class="st1" d="M320.5,338.9h27.1c2,0,3.6,1.6,3.6,3.6v39.1c0,2-1.6,3.6-3.6,3.6h-27.1c-2,0-3.6-1.6-3.6-3.6v-39.1&#10;&#9;&#9;C316.9,340.5,318.5,338.9,320.5,338.9L320.5,338.9z" style="fill-rule: evenodd; clip-rule: evenodd; fill: rgb(48, 101, 110);" transform="matrix(1, 0, 0, 1, -316.6030069986979, -338.5658874511719)"/><path class="st2" d="M333.5,341.9c7.9,0,14.4,6.4,14.4,14.4c0,7.9-6.4,14.4-14.4,14.4c-7.9,0-14.4-6.4-14.4-14.4&#10;&#9;&#9;C319.1,348.3,325.5,341.9,333.5,341.9L333.5,341.9z" style="fill-rule: evenodd; clip-rule: evenodd; fill: rgb(80, 171, 190);" transform="matrix(1, 0, 0, 1, -316.6030069986979, -338.5658874511719)"/><path class="st3" d="M334.6,343.1c7.9,0,14.4,6.4,14.4,14.4s-6.4,14.4-14.4,14.4s-14.4-6.4-14.4-14.4S326.7,343.1,334.6,343.1&#10;&#9;&#9;L334.6,343.1z" style="fill-rule: evenodd; clip-rule: evenodd; fill: rgb(116, 199, 220);" transform="matrix(1, 0, 0, 1, -316.6030069986979, -338.5658874511719)"/><path class="st2" d="M349,358.3c-0.4,7.3-6.3,13.2-13.6,13.6l-7.5-7.5l0,0c-1.7-1.7-2.8-4.1-2.8-6.8c0-2.6,1.1-5,2.8-6.8&#10;&#9;&#9;c1.2-1.2,2.7-2.1,4.4-2.5l1.4,1.4v-1.7h2l1.4,1.4v-1c1.7,0.4,3.2,1.3,4.4,2.5L349,358.3L349,358.3z" style="fill-rule: evenodd; clip-rule: evenodd; fill: rgb(80, 171, 190);" transform="matrix(1, 0, 0, 1, -316.6030069986979, -338.5658874511719)"/><path class="st4" d="M337,348.2c1.7,0.4,3.2,1.3,4.4,2.5c1.7,1.7,2.8,4.1,2.8,6.8c0,2.6-1.1,5-2.8,6.8c-1.7,1.7-4.1,2.8-6.8,2.8&#10;&#9;&#9;s-5-1.1-6.8-2.8c-1.7-1.7-2.8-4.1-2.8-6.8c0-2.6,1.1-5,2.8-6.8c1.2-1.2,2.7-2.1,4.4-2.5v2.1c-1.1,0.4-2.2,1-3,1.8&#10;&#9;&#9;c-1.4,1.4-2.2,3.3-2.2,5.3c0,2.1,0.8,4,2.2,5.3c1.4,1.4,3.3,2.2,5.3,2.2s4-0.8,5.3-2.2c1.4-1.4,2.2-3.3,2.2-5.3&#10;&#9;&#9;c0-2.1-0.8-4-2.2-5.3c-0.8-0.8-1.8-1.5-3-1.8V348.2L337,348.2z M335.6,347.9v6.1h-2v-6.1H335.6L335.6,347.9z" style="fill-rule: evenodd; clip-rule: evenodd; fill: rgb(255, 255, 255);" transform="matrix(1, 0, 0, 1, -316.6030069986979, -338.5658874511719)"/><path class="st5" d="M351.2,374.1v7.5c0,2-1.6,3.6-3.6,3.6h-27.1c-2,0-3.6-1.6-3.6-3.6v-7.5H351.2L351.2,374.1z" style="fill-rule: evenodd; clip-rule: evenodd; fill: rgb(25, 52, 54);" transform="matrix(1, 0, 0, 1, -316.6030069986979, -338.5658874511719)"/><path class="st6" d="M328.4,379.2c0-0.6,0.1-1.1,0.3-1.6c0.1-0.3,0.3-0.6,0.6-0.8c0.2-0.2,0.5-0.4,0.8-0.5c0.4-0.2,0.8-0.2,1.3-0.2&#10;&#9;&#9;c0.9,0,1.6,0.3,2.2,0.8c0.5,0.6,0.8,1.3,0.8,2.3c0,1-0.3,1.8-0.8,2.3c-0.5,0.6-1.3,0.8-2.1,0.8c-0.9,0-1.6-0.3-2.2-0.8&#10;&#9;&#9;C328.6,381,328.4,380.2,328.4,379.2L328.4,379.2z M329.6,379.2c0,0.7,0.2,1.2,0.5,1.6c0.3,0.4,0.7,0.5,1.2,0.5&#10;&#9;&#9;c0.5,0,0.9-0.2,1.2-0.5c0.3-0.4,0.5-0.9,0.5-1.6c0-0.7-0.2-1.2-0.5-1.6c-0.3-0.3-0.7-0.5-1.2-0.5c-0.5,0-0.9,0.2-1.2,0.5&#10;&#9;&#9;C329.8,378,329.6,378.5,329.6,379.2L329.6,379.2z M335.3,382.3v-6.1h1.2l2.5,4.1v-4.1h1.1v6.1h-1.2l-2.5-4v4H335.3L335.3,382.3z" style="fill: rgb(11, 26, 27);" transform="matrix(1, 0, 0, 1, -316.6030069986979, -338.5658874511719)"/><path class="st7" d="M328.4,379.7c0-0.6,0.1-1.1,0.3-1.6c0.1-0.3,0.3-0.6,0.6-0.8c0.2-0.2,0.5-0.4,0.8-0.5c0.4-0.2,0.8-0.2,1.3-0.2&#10;&#9;&#9;c0.9,0,1.6,0.3,2.2,0.8c0.5,0.6,0.8,1.3,0.8,2.3c0,1-0.3,1.8-0.8,2.3c-0.5,0.6-1.3,0.8-2.1,0.8c-0.9,0-1.6-0.3-2.2-0.8&#10;&#9;&#9;C328.6,381.4,328.4,380.7,328.4,379.7L328.4,379.7z M329.6,379.7c0,0.7,0.2,1.2,0.5,1.6c0.3,0.4,0.7,0.5,1.2,0.5&#10;&#9;&#9;c0.5,0,0.9-0.2,1.2-0.5c0.3-0.4,0.5-0.9,0.5-1.6c0-0.7-0.2-1.2-0.5-1.6c-0.3-0.3-0.7-0.5-1.2-0.5c-0.5,0-0.9,0.2-1.2,0.5&#10;&#9;&#9;C329.8,378.4,329.6,379,329.6,379.7L329.6,379.7z M335.3,382.7v-6.1h1.2l2.5,4.1v-4.1h1.1v6.1h-1.2l-2.5-4v4H335.3L335.3,382.7z" style="fill: rgb(116, 199, 220);" transform="matrix(1, 0, 0, 1, -316.6030069986979, -338.5658874511719)"/>
</svg>