<?xml version="1.0" encoding="utf-8"?>
<svg id="master-artboard" viewBox="0 0 34.833335876464844 47" version="1.1" xmlns="http://www.w3.org/2000/svg" x="0px" y="0px" style="enable-background:new 0 0 612 792;" width="34.833335876464844px" height="47px"><rect id="ee-background" x="0" y="0" width="34.833335876464844" height="47" style="fill: white; fill-opacity: 0; pointer-events: none;"/>

<path class="st1" d="M363.9,338.9H391c2,0,3.6,1.6,3.6,3.6v39.1c0,2-1.6,3.6-3.6,3.6h-27.1c-2,0-3.6-1.6-3.6-3.6v-39.1&#10;&#9;&#9;C360.3,340.5,361.9,338.9,363.9,338.9L363.9,338.9z" style="fill-rule: evenodd; clip-rule: evenodd; fill: rgb(48, 101, 110);" transform="matrix(1, 0, 0, 1, -359.9363301595052, -338.5658874511719)"/><path class="st8" d="M376.9,341.9c7.9,0,14.4,6.4,14.4,14.4c0,7.9-6.4,14.4-14.4,14.4c-7.9,0-14.4-6.4-14.4-14.4&#10;&#9;&#9;C362.5,348.3,368.9,341.9,376.9,341.9L376.9,341.9z" style="fill-rule: evenodd; clip-rule: evenodd; fill: rgb(216, 72, 69);" transform="matrix(1, 0, 0, 1, -359.9363301595052, -338.5658874511719)"/><path class="st9" d="M378,343.1c7.9,0,14.4,6.4,14.4,14.4s-6.4,14.4-14.4,14.4c-7.9,0-14.4-6.4-14.4-14.4S370.1,343.1,378,343.1&#10;&#9;&#9;L378,343.1z" style="fill-rule: evenodd; clip-rule: evenodd; fill: rgb(235, 81, 73);" transform="matrix(1, 0, 0, 1, -359.9363301595052, -338.5658874511719)"/><path class="st8" d="M392.4,358.3c-0.4,7.3-6.3,13.2-13.6,13.6l-7.5-7.5l0,0c-1.7-1.7-2.8-4.1-2.8-6.8c0-2.6,1.1-5,2.8-6.8&#10;&#9;&#9;c1.2-1.2,2.7-2.1,4.4-2.5l1.4,1.4v-1.7h2l1.4,1.4v-1c1.7,0.4,3.2,1.3,4.4,2.5L392.4,358.3L392.4,358.3z" style="fill-rule: evenodd; clip-rule: evenodd; fill: rgb(216, 72, 69);" transform="matrix(1, 0, 0, 1, -359.9363301595052, -338.5658874511719)"/><path class="st4" d="M380.4,366.7c1.7-0.4,3.2-1.3,4.4-2.5c1.7-1.7,2.8-4.1,2.8-6.8c0-2.6-1.1-5-2.8-6.8c-1.7-1.7-4.1-2.8-6.8-2.8&#10;&#9;&#9;c-2.6,0-5,1.1-6.8,2.8c-1.7,1.7-2.8,4.1-2.8,6.8c0,2.6,1.1,5,2.8,6.8c1.2,1.2,2.7,2.1,4.4,2.5v-2.1c-1.1-0.4-2.2-1-3-1.8&#10;&#9;&#9;c-1.4-1.4-2.2-3.3-2.2-5.3c0-2.1,0.8-4,2.2-5.3c1.4-1.4,3.3-2.2,5.3-2.2c2.1,0,4,0.8,5.3,2.2c1.4,1.4,2.2,3.3,2.2,5.3&#10;&#9;&#9;c0,2.1-0.8,4-2.2,5.3c-0.8,0.8-1.8,1.5-3,1.8V366.7L380.4,366.7z M379,367.1v-6.1h-2v6.1H379L379,367.1z" style="fill-rule: evenodd; clip-rule: evenodd; fill: rgb(255, 255, 255);" transform="matrix(1, 0, 0, 1, -359.9363301595052, -338.5658874511719)"/><path class="st5" d="M394.6,374.1v7.5c0,2-1.6,3.6-3.6,3.6h-27.1c-2,0-3.6-1.6-3.6-3.6v-7.5H394.6L394.6,374.1z" style="fill-rule: evenodd; clip-rule: evenodd; fill: rgb(25, 52, 54);" transform="matrix(1, 0, 0, 1, -359.9363301595052, -338.5658874511719)"/><path class="st6" d="M369.6,379.2c0-0.6,0.1-1.1,0.3-1.6c0.1-0.3,0.3-0.6,0.6-0.8c0.2-0.2,0.5-0.4,0.8-0.5c0.4-0.2,0.8-0.2,1.3-0.2&#10;&#9;&#9;c0.9,0,1.6,0.3,2.2,0.8c0.5,0.6,0.8,1.3,0.8,2.3c0,1-0.3,1.8-0.8,2.3c-0.5,0.6-1.3,0.8-2.1,0.8c-0.9,0-1.6-0.3-2.2-0.8&#10;&#9;&#9;C369.9,381,369.6,380.2,369.6,379.2L369.6,379.2z M370.9,379.2c0,0.7,0.2,1.2,0.5,1.6c0.3,0.4,0.7,0.5,1.2,0.5&#10;&#9;&#9;c0.5,0,0.9-0.2,1.2-0.5c0.3-0.4,0.5-0.9,0.5-1.6c0-0.7-0.2-1.2-0.5-1.6c-0.3-0.3-0.7-0.5-1.2-0.5c-0.5,0-0.9,0.2-1.2,0.5&#10;&#9;&#9;C371.1,378,370.9,378.5,370.9,379.2L370.9,379.2z M376.5,382.3v-6.1h4.2v1h-3v1.4h2.5v1h-2.5v2.6H376.5L376.5,382.3z M381.7,382.3&#10;&#9;&#9;v-6.1h4.2v1h-3v1.4h2.5v1H383v2.6H381.7L381.7,382.3z" style="fill: rgb(11, 26, 27);" transform="matrix(1, 0, 0, 1, -359.9363301595052, -338.5658874511719)"/><path class="st10" d="M369.6,379.7c0-0.6,0.1-1.1,0.3-1.6c0.1-0.3,0.3-0.6,0.6-0.8c0.2-0.2,0.5-0.4,0.8-0.5&#10;&#9;&#9;c0.4-0.2,0.8-0.2,1.3-0.2c0.9,0,1.6,0.3,2.2,0.8c0.5,0.6,0.8,1.3,0.8,2.3c0,1-0.3,1.8-0.8,2.3c-0.5,0.6-1.3,0.8-2.1,0.8&#10;&#9;&#9;c-0.9,0-1.6-0.3-2.2-0.8C369.9,381.4,369.6,380.7,369.6,379.7L369.6,379.7z M370.9,379.7c0,0.7,0.2,1.2,0.5,1.6&#10;&#9;&#9;c0.3,0.4,0.7,0.5,1.2,0.5c0.5,0,0.9-0.2,1.2-0.5c0.3-0.4,0.5-0.9,0.5-1.6c0-0.7-0.2-1.2-0.5-1.6c-0.3-0.3-0.7-0.5-1.2-0.5&#10;&#9;&#9;c-0.5,0-0.9,0.2-1.2,0.5C371.1,378.4,370.9,379,370.9,379.7L370.9,379.7z M376.5,382.7v-6.1h4.2v1h-3v1.4h2.5v1h-2.5v2.6H376.5&#10;&#9;&#9;L376.5,382.7z M381.7,382.7v-6.1h4.2v1h-3v1.4h2.5v1H383v2.6H381.7L381.7,382.7z" style="fill: rgb(235, 81, 73);" transform="matrix(1, 0, 0, 1, -359.9363301595052, -338.5658874511719)"/>
</svg>