<?xml version="1.0" encoding="utf-8"?>
<svg id="master-artboard" viewBox="0 0 35 59" version="1.1" xmlns="http://www.w3.org/2000/svg" x="0px" y="0px" style="enable-background:new 0 0 612 792;" width="35px" height="59px"><rect id="ee-background" x="0" y="0" width="35" height="59" style="fill: white; fill-opacity: 0; pointer-events: none;"/>


<path class="st11" d="M388.1,444.2h-23.9c-2.2,0-4-1.8-4-4v-39.8c0-2.2,1.8-4,4-4h23.9c2.2,0,4,1.8,4,4v39.8&#10;&#9;&#9;C392.1,442.4,390.3,444.2,388.1,444.2L388.1,444.2z" style="fill-rule: evenodd; clip-rule: evenodd; fill: rgb(128, 130, 133);" transform="matrix(1, 0, 0, 1, -360.0897827148437, -396.2702331542968)"/><path class="st12" d="M388.8,444.8h-23.9c-2.2,0-4-1.8-4-4V401c0-2.2,1.8-4,4-4h23.9c2.2,0,4,1.8,4,4v39.8&#10;&#9;&#9;C392.8,443,391,444.8,388.8,444.8L388.8,444.8z" style="fill-rule: evenodd; clip-rule: evenodd;" transform="matrix(1, 0, 0, 1, -360.0897827148437, -396.2702331542968)"/><path class="st9" d="M391.6,399.1c3.3,4.8,3,12.7,3,12.7c-2.3,8.6-3,31-3,31h-28.7v-43.7H391.6L391.6,399.1z" style="fill-rule: evenodd; clip-rule: evenodd; fill: rgb(235, 81, 73);" transform="matrix(1, 0, 0, 1, -360.0897827148437, -396.2702331542968)"/><path class="st13" d="M362.9,442.8c0,0,0.5-0.7,0.5-1.6c0-0.9,0.4-17.9,1-22.1c0.7-4.2,3.3-11.3-1.6-20v42V442.8L362.9,442.8z" style="fill-rule: evenodd; clip-rule: evenodd; fill: rgb(195, 68, 67);" transform="matrix(1, 0, 0, 1, -360.0897827148437, -396.2702331542968)"/><path class="st14" d="M379.3,420.9c-3.3-0.1-11.9-0.5-13.6-9.1h28.9c-0.3,1-0.5,2.2-0.7,3.5C393.9,415.3,392.1,421.1,379.3,420.9&#10;&#9;&#9;L379.3,420.9z" style="fill-rule: evenodd; clip-rule: evenodd; fill: rgb(240, 118, 105);" transform="matrix(1, 0, 0, 1, -360.0897827148437, -396.2702331542968)"/><path class="st8" d="M365.7,411.8c0.3-3.6-0.1-7.9-2.8-12.7h28.7c3.3,4.8,3,12.7,3,12.7H365.7L365.7,411.8z" style="fill-rule: evenodd; clip-rule: evenodd; fill: rgb(216, 72, 69);" transform="matrix(1, 0, 0, 1, -360.0897827148437, -396.2702331542968)"/><path d="M368.6,450.6c0-0.7,0.1-1.3,0.3-1.7c0.2-0.3,0.4-0.7,0.6-0.9c0.3-0.3,0.6-0.5,0.9-0.6c0.4-0.2,0.9-0.3,1.5-0.3&#10;&#9;&#9;c1,0,1.8,0.3,2.4,0.9c0.6,0.6,0.9,1.5,0.9,2.6c0,1.1-0.3,1.9-0.9,2.6c-0.6,0.6-1.4,0.9-2.4,0.9c-1,0-1.8-0.3-2.4-0.9&#10;&#9;&#9;C368.9,452.5,368.6,451.7,368.6,450.6L368.6,450.6z M370,450.6c0,0.8,0.2,1.3,0.5,1.7c0.4,0.4,0.8,0.6,1.3,0.6c0.5,0,1-0.2,1.3-0.6&#10;&#9;&#9;c0.3-0.4,0.5-1,0.5-1.8c0-0.8-0.2-1.4-0.5-1.7c-0.3-0.4-0.8-0.6-1.4-0.6c-0.6,0-1,0.2-1.4,0.6C370.2,449.2,370,449.8,370,450.6&#10;&#9;&#9;L370,450.6z M376.3,454v-6.8h4.6v1.1h-3.3v1.6h2.8v1.1h-2.8v2.9H376.3L376.3,454z M382,454v-6.8h4.6v1.1h-3.3v1.6h2.8v1.1h-2.8v2.9&#10;&#9;&#9;H382L382,454z" transform="matrix(1, 0, 0, 1, -360.0897827148437, -396.2702331542968)"/><path class="st10" d="M368.6,450.8c0-0.7,0.1-1.3,0.3-1.7c0.2-0.3,0.4-0.7,0.6-0.9c0.3-0.3,0.6-0.5,0.9-0.6&#10;&#9;&#9;c0.4-0.2,0.9-0.3,1.5-0.3c1,0,1.8,0.3,2.4,0.9c0.6,0.6,0.9,1.5,0.9,2.6c0,1.1-0.3,1.9-0.9,2.6c-0.6,0.6-1.4,0.9-2.4,0.9&#10;&#9;&#9;c-1,0-1.8-0.3-2.4-0.9C368.9,452.8,368.6,451.9,368.6,450.8L368.6,450.8z M370,450.8c0,0.8,0.2,1.3,0.5,1.7&#10;&#9;&#9;c0.4,0.4,0.8,0.6,1.3,0.6c0.5,0,1-0.2,1.3-0.6c0.3-0.4,0.5-1,0.5-1.8c0-0.8-0.2-1.4-0.5-1.7c-0.3-0.4-0.8-0.6-1.4-0.6&#10;&#9;&#9;c-0.6,0-1,0.2-1.4,0.6C370.2,449.4,370,450,370,450.8L370,450.8z M376.3,454.2v-6.8h4.6v1.1h-3.3v1.6h2.8v1.1h-2.8v2.9H376.3&#10;&#9;&#9;L376.3,454.2z M382,454.2v-6.8h4.6v1.1h-3.3v1.6h2.8v1.1h-2.8v2.9H382L382,454.2z" style="fill: rgb(235, 81, 73);" transform="matrix(1, 0, 0, 1, -360.0897827148437, -396.2702331542968)"/></svg>